ply
format ascii 1.0
comment PCL generated
element vertex 15
property float x
property float y
property float z
element camera 1
property float view_px
property float view_py
property float view_pz
property float x_axisx
property float x_axisy
property float x_axisz
property float y_axisx
property float y_axisy
property float y_axisz
property float z_axisx
property float z_axisy
property float z_axisz
property float focal
property float scalex
property float scaley
property float centerx
property float centery
property int viewportx
property int viewporty
property float k1
property float k2
end_header
35.487541 1711.7225 222.82153
44.733246 1482.5699 187.15747
-26.917406 1458.9659 343.57349
-125.57281 1200.6794 332.07373
-349.21826 989.77039 310.98364
116.3839 1506.1738 30.741699
237.69382 1223.4604 -29.404053
294.64893 913.61548 -63.693604
57.374023 1238.7816 156.15918
23.162596 979.55884 227.44092
-21.549444 489.85645 246.55957
-5.285212 170.67041 248.45435
116.867 1010.4279 22.881104
201.41814 529.40771 83.444824
305.20941 199.03101 85.645996
0 0 0 1 0 0 0 1 0 0 0 1 0 0 0 0 0 15 1 0 0
