ply
format ascii 1.0
comment PCL generated
element vertex 15
property float x
property float y
property float z
element camera 1
property float view_px
property float view_py
property float view_pz
property float x_axisx
property float x_axisy
property float x_axisz
property float y_axisx
property float y_axisy
property float y_axisz
property float z_axisx
property float z_axisy
property float z_axisz
property float focal
property float scalex
property float scaley
property float centerx
property float centery
property int viewportx
property int viewporty
property float k1
property float k2
end_header
47.782032 1435.4355 110.76514
44.126965 1237.1649 103.3999
-92.587868 1240.8845 69.991211
-178.59514 963.50977 29.036865
-283.77136 706.5498 -58.082275
180.84178 1233.4453 136.80859
293.85065 917.64355 94.494629
402.34836 642.23096 47.375732
41.779774 1038.1112 90.843506
-49.969669 841.48987 56.439941
-46.537315 448.04285 121.56348
-45.023556 170.10376 159.10205
128.83484 836.62512 100.13428
134.39647 439.19495 131.54126
165.26669 172.37207 176.19849
0 0 0 1 0 0 0 1 0 0 0 1 0 0 0 0 0 15 1 0 0
