ply
format ascii 1.0
comment PCL generated
element vertex 15
property float x
property float y
property float z
element camera 1
property float view_px
property float view_py
property float view_pz
property float x_axisx
property float x_axisy
property float x_axisz
property float y_axisx
property float y_axisy
property float y_axisz
property float z_axisx
property float z_axisy
property float z_axisz
property float focal
property float scalex
property float scaley
property float centerx
property float centery
property int viewportx
property int viewporty
property float k1
property float k2
end_header
-7.5416832 1336.2076 318.10352
-7.5390491 1143.2648 327.12744
-145.10556 1140.1597 296.25171
-204.61324 846.00488 277.28076
-179.0724 927.66113 35.199951
130.02747 1146.37 358.00317
230.79738 921.4873 469.76929
215.44054 724.25793 291.77222
-5.813549 943.83057 339.49731
-94.576912 742.35388 331.55786
-101.83289 405.4502 117.09326
-95.238258 151.35034 120.6853
86.40081 746.43884 372.177
80.955467 340.54797 401.90942
14.364502 -19.78833 516.27393
0 0 0 1 0 0 0 1 0 0 0 1 0 0 0 0 0 15 1 0 0
