ply
format ascii 1.0
comment PCL generated
element vertex 15
property float x
property float y
property float z
element camera 1
property float view_px
property float view_py
property float view_pz
property float x_axisx
property float x_axisy
property float x_axisz
property float y_axisx
property float y_axisy
property float y_axisz
property float z_axisx
property float z_axisy
property float z_axisz
property float focal
property float scalex
property float scaley
property float centerx
property float centery
property int viewportx
property int viewporty
property float k1
property float k2
end_header
54.615417 1453.0905 168.67944
75.919228 1249.4695 120.11401
82.4058 1215.7679 268.68481
82.405968 955.08887 158.03296
82.405106 694.40979 47.381348
69.432655 1283.1709 -28.457031
19.907219 1036.5768 -145.37793
-269.02448 950.896 -79.716553
87.403793 1038.7441 71.8125
103.13808 805.93909 120.84863
-43.757561 407.72192 206.42432
-60.543571 131.49023 218.01367
94.638634 850.09863 -73.826416
145.54749 426.93579 2.3254395
237.05453 137.9292 31.012207
0 0 0 1 0 0 0 1 0 0 0 1 0 0 0 0 0 15 1 0 0
