ply
format ascii 1.0
comment PCL generated
element vertex 15
property float x
property float y
property float z
element camera 1
property float view_px
property float view_py
property float view_pz
property float x_axisx
property float x_axisy
property float x_axisz
property float y_axisx
property float y_axisy
property float y_axisz
property float z_axisx
property float z_axisy
property float z_axisz
property float focal
property float scalex
property float scaley
property float centerx
property float centery
property int viewportx
property int viewporty
property float k1
property float k2
end_header
87.214928 1480.4851 61.798584
70.60379 1274.4388 97.595703
-75.646866 1282.9615 82.766602
-156.81386 987.90515 27.574951
-193.2473 728.776 -35.155518
216.85443 1265.916 112.42505
343.24762 971.77673 120.29614
423.40118 688.59497 45.038818
56.788078 1066.897 114.57007
-52.641788 864.92712 121.84912
-50.47916 449.01245 87.700439
-74.533287 152.56494 153.25073
138.58653 853.7832 141.23877
211.27321 442.92163 145.19873
250.44614 163.70264 188.24219
0 0 0 1 0 0 0 1 0 0 0 1 0 0 0 0 0 15 1 0 0
