ply
format ascii 1.0
comment PCL generated
element vertex 15
property float x
property float y
property float z
element camera 1
property float view_px
property float view_py
property float view_pz
property float x_axisx
property float x_axisy
property float x_axisz
property float y_axisx
property float y_axisy
property float y_axisz
property float z_axisx
property float z_axisy
property float z_axisz
property float focal
property float scalex
property float scaley
property float centerx
property float centery
property int viewportx
property int viewporty
property float k1
property float k2
end_header
141.88959 1450.7069 220.02319
169.26814 1235.3669 211.10645
103.12505 1228.381 327.0481
97.25956 1059.3806 433.22388
-266.19131 1104.1812 433.64771
235.41122 1242.353 95.164551
355.32727 974.73987 -13.245605
356.84232 676.08228 14.59082
181.27599 1042.5634 206.33936
160.15833 846.26111 259.63794
61.839172 486.94641 187.68457
-73.306229 181.11035 201.46899
226.40933 853.25842 143.50684
280.18854 463.48853 39.029053
440.56921 130.31787 111.73291
0 0 0 1 0 0 0 1 0 0 0 1 0 0 0 0 0 15 1 0 0
