ply
format ascii 1.0
comment PCL generated
element vertex 15
property float x
property float y
property float z
element camera 1
property float view_px
property float view_py
property float view_pz
property float x_axisx
property float x_axisy
property float x_axisz
property float y_axisx
property float y_axisy
property float y_axisz
property float z_axisx
property float z_axisy
property float z_axisz
property float focal
property float scalex
property float scaley
property float centerx
property float centery
property int viewportx
property int viewporty
property float k1
property float k2
end_header
-45.725613 1441.568 259.23193
-42.2197 1209.0847 216.07959
-173.37721 1217.1897 290.17017
-204.24353 963.22656 317.68701
-365.25079 777.81433 417.02148
88.937813 1200.98 141.98926
170.9202 948.52881 77.976807
175.70152 718.16797 67.695068
-45.129166 1013.1257 232.36548
-123.15708 821.80859 291.08496
-164.00244 436.09167 240.16479
-219.48283 92.307129 269.57153
27.079824 812.52478 206.2168
66.397247 400.64795 150.51611
122.44144 48.184814 358.28369
0 0 0 1 0 0 0 1 0 0 0 1 0 0 0 0 0 15 1 0 0
