ply
format ascii 1.0
comment PCL generated
element vertex 15
property float x
property float y
property float z
element camera 1
property float view_px
property float view_py
property float view_pz
property float x_axisx
property float x_axisy
property float x_axisz
property float y_axisx
property float y_axisy
property float y_axisz
property float z_axisx
property float z_axisy
property float z_axisz
property float focal
property float scalex
property float scaley
property float centerx
property float centery
property int viewportx
property int viewporty
property float k1
property float k2
end_header
-26.617752 1509.6299 104.27734
14.041832 1307.8192 75.051514
-86.117264 1273.14 181.50879
-214.62611 1053.7325 331.30493
-439.07004 894.4292 321.82617
114.20094 1342.4984 -31.406006
238.45448 1020.4655 -69.89624
274.96695 711.06812 -80.998535
53.644638 1100.8295 44.883545
27.759949 871.16528 84.320801
-96.659447 494.61499 239.0752
-71.104515 165.70752 277.41211
158.73494 916.51428 -54.890381
123.0317 498.66736 18.563721
207.55025 139.28442 36.959473
0 0 0 1 0 0 0 1 0 0 0 1 0 0 0 0 0 15 1 0 0
